<svg width="320" height="320" viewBox="0 0 320 320" fill="none" xmlns="http://www.w3.org/2000/svg">
<circle cx="160" cy="160" r="160" fill="#183875"/>
<circle cx="160" cy="160" r="124.385" stroke="#15336E" stroke-width="22"/>
<path d="M77.5714 72.0934C103.554 72.0934 121.474 82.3998 121.474 105.701C121.026 115.708 121.474 127.657 121.474 134.827C167.192 128.755 183.743 169.779 141.185 192.631H168.512V207.867H103.107L100.418 203.834L138.497 174.708C154.176 160.369 139.393 146.029 122.369 152.751C120.646 179.486 111.415 186.256 89.2189 192.631L104.899 218.621H200.319L181.503 241.026H85.1867L67.2677 209.659C62.9031 202.129 60.1325 200.033 54.7248 199.353H40.8371V224.31C30.4907 205.179 24.6154 183.276 24.6154 160C24.6154 146.254 26.6664 132.988 30.4748 120.488H40.8371V174.708H72.6437C87.9777 172.919 93.4566 169.74 97.2824 159.921V108.838C97.2824 98.9796 90.1152 94.4988 81.6037 94.4987H41.4894C45.9201 86.4993 51.1371 78.9964 57.0363 72.0934H77.5714ZM273.339 234.074C271.787 236.444 270.164 238.763 268.471 241.026H249.149V147.822H273.339V234.074ZM262.224 71.234C266.249 75.8657 269.965 80.7734 273.339 85.9254V112.988H286.997C289.701 120.29 291.794 127.889 293.212 135.723H235.709C217.79 135.723 203.903 149.614 200.767 163.057V207.867H177.024V72.0934H200.767V119.591C208.285 116.387 218.238 112.988 225.405 112.988H249.149V88.6735L262.224 71.234Z" fill="#15336E"/>
<path d="M112.821 104.872H70.7692L82.8205 117.692H115.128C120 117.692 124.103 120.256 124.103 125.897V155.128C121.913 160.747 118.777 162.566 110 163.59H91.7949V132.564H78.4615V201.026H91.7949V177.692H99.7436C102.839 178.081 104.425 179.281 106.923 183.59L117.179 201.538H172.308L183.077 188.718H128.462L119.487 173.846C132.191 170.198 137.475 166.324 138.462 151.026C148.205 147.179 156.667 155.385 147.692 163.59L125.897 180.256L127.436 182.564H164.872V173.846H149.231C173.59 160.769 164.116 137.295 137.949 140.769C137.949 136.667 137.692 129.829 137.949 124.103C137.949 110.769 127.692 104.872 112.821 104.872Z" fill="#EFBF04"/>
<path d="M169.744 104.872V182.564H183.333V156.923C185.128 149.231 193.077 141.282 203.333 141.282H249.231L242.821 128.273H224.872V95.8974L211.026 114.359V128.273H197.436C193.333 128.273 187.636 130.218 183.333 132.051V104.872H169.744Z" fill="#EFBF04"/>
<path d="M224.872 148.205H211.026V201.538H224.872V148.205Z" fill="#EFBF04"/>
<path d="M141.026 222.941V215.128H142.051V226.291L135.597 216.739L135.385 224.629L134.359 224.601L134.659 213.518L141.026 222.941ZM127.949 214.615V215.641H121.795V219.359H126.667V220.385H121.795V224.103H127.949V225.128H120.769V214.615H127.949ZM114.31 215.347L109.729 225.083L105.428 215.335L106.367 214.921L109.758 222.609L113.382 214.91L114.31 215.347ZM184.431 215.128L184.5 215.148C185.617 215.467 186.323 216.424 186.439 217.492C186.557 218.572 186.078 219.745 184.906 220.551L184.775 220.641H184.034L186.818 224.305L186.002 224.926L182.745 220.641H179.487V224.615H178.462V215.128H184.431ZM163.077 221.282V215.128H164.103V221.282C164.103 222.122 164.486 222.723 165.081 223.131C165.695 223.55 166.545 223.765 167.427 223.75C168.309 223.735 169.167 223.492 169.788 223.06C170.396 222.638 170.769 222.047 170.769 221.282V215.128H171.795V221.282C171.795 222.44 171.207 223.324 170.373 223.903C169.551 224.473 168.485 224.758 167.444 224.776C166.404 224.793 165.331 224.543 164.502 223.977C163.656 223.398 163.077 222.494 163.077 221.282ZM156.667 215.128V216.154H153.205V224.615H152.179V216.154H148.718V215.128H156.667ZM200.256 215.128V216.154H194.359V219.231H198.718V220.256H194.359V223.333H200.256V224.359H193.333V215.128H200.256ZM214.359 215.128V216.154H208.514C208.099 216.24 207.821 216.637 207.821 217.212C207.821 217.798 208.123 218.321 208.623 218.488L212.704 219.763C213.83 220.085 214.585 221.174 214.738 222.165C214.816 222.673 214.748 223.227 214.416 223.667C214.071 224.122 213.516 224.359 212.821 224.359H207.179V223.333H212.821C213.279 223.333 213.493 223.186 213.597 223.048C213.713 222.895 213.774 222.648 213.724 222.322C213.62 221.647 213.092 220.941 212.423 220.75L212.411 220.746L208.309 219.464L208.304 219.463L208.299 219.461C207.261 219.115 206.795 218.1 206.795 217.212C206.795 216.327 207.271 215.32 208.377 215.135L208.419 215.128H214.359ZM179.487 219.615H181.966L181.13 218.516L181.947 217.895L183.254 219.615H184.448C185.231 219.022 185.491 218.254 185.42 217.604C185.346 216.93 184.922 216.364 184.278 216.154H179.487V219.615Z" fill="white"/>
<path d="M227.692 219.487L242.821 220L227.692 220.769V219.487Z" fill="white"/>
<path d="M227.692 219.487L242.821 220L227.692 220.769V219.487Z" fill="white"/>
<path d="M92.5641 219.487L77.4359 220L92.5641 220.769V219.487Z" fill="white"/>
<path d="M92.5641 219.487L77.4359 220L92.5641 220.769V219.487Z" fill="white"/>
</svg>
