<svg width="61" height="36" viewBox="0 0 61 36" fill="none" xmlns="http://www.w3.org/2000/svg">
<path d="M52.1738 18.3252V35.5H48.4414V18.3252H52.1738ZM14.374 3.55859C16.8614 3.55865 18.8909 4.05202 20.2852 5.03906C21.6501 6.00544 22.4584 7.48089 22.4619 9.59766C22.3743 11.5605 22.4629 13.9262 22.4629 15.291V15.8613L23.0283 15.7871C27.3727 15.212 30.1238 16.8805 30.8984 18.9844C31.6628 21.0608 30.6333 23.9542 26.583 26.1221L26.8193 27.0635H31.665V29.0342H19.6367L19.5195 28.8604L26.5967 23.4658L26.6133 23.4521L26.6299 23.4375C27.4531 22.6871 27.9236 21.8942 28.0557 21.1191C28.1895 20.3339 27.9665 19.6143 27.4951 19.0625C26.5651 17.974 24.7624 17.6101 22.9551 18.3213L22.6592 18.4375L22.6387 18.7539C22.4729 21.317 21.9508 22.814 21.0273 23.8271C20.0931 24.8519 18.6787 25.4624 16.5146 26.082L15.8857 26.2627L16.2246 26.8223L19.292 31.8896L19.4385 32.1309H37.3125L34.4736 35.5H16.1533L12.792 29.6348L12.79 29.6318L12.4717 29.1113C12.159 28.629 11.8578 28.2597 11.5215 27.9883C11.0532 27.6103 10.5554 27.4518 9.96582 27.3779L9.93457 27.374H6.68652V35.3252H3.12891V12.9951H6.68652V23.5684H13.4385L13.4668 23.5645C14.9772 23.3889 16.0868 23.1389 16.9199 22.6436C17.7823 22.1308 18.2956 21.3888 18.6953 20.3662L18.7295 20.2783V10.2236C18.7295 9.12882 18.3239 8.2812 17.6377 7.71777C16.9657 7.16614 16.0752 6.92676 15.1621 6.92676H4.33496L1.16016 3.55859H14.374ZM52.1738 11.5322H58.498L60.1953 14.9658H45.3115C41.5494 14.966 38.649 17.8597 37.9883 20.6826L37.9756 20.7383V29.0342H34.3301V3.55859H37.9756V13.0762L38.6709 12.7803C40.1395 12.1564 42.0044 11.5323 43.2959 11.5322H48.4414V6.45801L52.1738 1.49609V11.5322Z" fill="#EFBF04" stroke="#EFBF04"/>
</svg>
