<svg width="46" height="46" viewBox="0 0 46 46" fill="none" xmlns="http://www.w3.org/2000/svg">
<path d="M21.3506 1.63698C21.6206 0.150904 23.7515 0.150904 24.0215 1.63698L25.6064 10.3606C25.9185 12.0781 27.9008 12.8994 29.3359 11.9055L36.625 6.85768C37.8666 5.99783 39.3732 7.5037 38.5137 8.74538L33.4658 16.0354C32.4721 17.4704 33.2926 19.4526 35.0098 19.7649L43.7344 21.3499C45.2205 21.6199 45.2204 23.7508 43.7344 24.0208L35.0098 25.6057C33.2926 25.918 32.4721 27.9003 33.4658 29.3352L38.5137 36.6243C39.3736 37.866 37.8667 39.3729 36.625 38.513L29.3359 33.4651C27.901 32.4714 25.9188 33.2919 25.6064 35.009L24.0215 43.7337C23.7515 45.2197 21.6206 45.2197 21.3506 43.7337L19.7656 35.009C19.4533 33.2918 17.4711 32.4714 16.0361 33.4651L8.74609 38.513C7.50442 39.3725 5.99854 37.8659 6.8584 36.6243L11.9062 29.3352C12.9001 27.9001 12.0788 25.9178 10.3613 25.6057L1.6377 24.0208C0.151621 23.7508 0.151621 21.6199 1.6377 21.3499L10.3613 19.7649C12.0788 19.4529 12.9001 17.4705 11.9062 16.0354L6.8584 8.74538C5.99862 7.50369 7.50441 5.9979 8.74609 6.85768L16.0361 11.9055C17.4712 12.8994 19.4536 12.0781 19.7656 10.3606L21.3506 1.63698Z" stroke="#EFBF04" stroke-width="1.04396"/>
</svg>
